<?xml version="1.0" standalone="no"?>
<!DOCTYPE svg PUBLIC "-//W3C//DTD SVG 20010904//EN"
 "http://www.w3.org/TR/2001/REC-SVG-20010904/DTD/svg10.dtd">
<svg version="1.0" xmlns="http://www.w3.org/2000/svg"
 width="97.000000pt" height="146.000000pt" viewBox="0 0 97.000000 146.000000"
 preserveAspectRatio="xMidYMid meet">

<g transform="translate(0.000000,146.000000) scale(0.100000,-0.100000)"
fill="#000000" stroke="none">
<path d="M425 1446 c-70 -31 -106 -112 -70 -162 8 -12 12 -24 9 -27 -3 -3 4
-3 16 0 17 4 21 2 18 -8 -3 -8 -15 -14 -26 -13 -12 0 -24 -6 -27 -13 -3 -10 1
-13 15 -8 11 4 20 2 20 -4 0 -12 2 -12 -60 -16 -25 -1 -60 -5 -77 -9 -31 -7
-33 -10 -33 -51 l0 -43 54 -6 c45 -6 55 -11 67 -34 16 -33 49 -72 61 -72 4 0
9 8 9 18 3 40 17 -49 18 -114 l1 -71 -72 -18 c-61 -14 -168 -58 -168 -68 0 -2
15 -1 33 1 25 3 40 -4 72 -31 l40 -35 42 30 c52 38 116 47 161 24 l32 -17 0
34 c0 63 53 104 66 51 6 -22 8 -24 16 -10 5 9 14 14 20 10 6 -4 2 -15 -11 -28
-11 -11 -29 -31 -40 -43 l-20 -22 32 6 c30 6 31 5 17 -12 -10 -13 -11 -16 -2
-11 26 16 52 126 30 126 -4 0 -8 6 -8 14 0 8 -4 17 -9 20 -5 4 -7 -2 -4 -13 3
-10 0 -22 -6 -25 -7 -5 -11 5 -11 26 0 32 -14 58 -32 58 -4 0 -8 -7 -8 -16 0
-24 -23 -11 -31 17 -4 13 -7 61 -8 106 l-1 82 33 6 c17 3 41 5 52 4 11 0 44 3
73 7 l52 7 0 42 c0 50 -4 52 -127 62 -60 4 -83 10 -83 19 0 8 4 14 9 14 5 0
23 14 40 31 98 97 -40 243 -174 185z m120 -71 c28 -27 31 -43 12 -70 -10 -12
-16 -14 -21 -7 -4 7 -33 12 -67 12 -56 0 -59 1 -59 24 0 31 43 66 82 66 17 0
39 -10 53 -25z m-125 -90 c-7 -8 -19 -15 -26 -15 -8 0 -11 6 -8 15 4 8 15 15
26 15 17 0 18 -3 8 -15z m-5 -65 c3 -5 -1 -10 -10 -10 -9 0 -13 5 -10 10 3 6
8 10 10 10 2 0 7 -4 10 -10z m-55 -49 c0 -12 -20 -25 -27 -18 -7 7 6 27 18 27
5 0 9 -4 9 -9z m-21 -62 c-19 -12 -24 -2 -8 17 9 11 14 13 17 4 3 -7 -2 -16
-9 -21z m21 -18 c0 -5 -7 -14 -15 -21 -12 -10 -15 -10 -15 2 0 8 3 18 7 21 9
10 23 9 23 -2z m1 -58 c-10 -17 -10 -16 -11 3 0 23 13 41 18 25 2 -6 -1 -18
-7 -28z m49 16 c0 -18 -2 -19 -15 -9 -8 7 -15 16 -15 21 0 5 7 9 15 9 9 0 15
-9 15 -21z m-20 -29 c0 -11 -4 -20 -10 -20 -5 0 -10 9 -10 20 0 11 5 20 10 20
6 0 10 -9 10 -20z m230 -181 c0 -11 -4 -17 -10 -14 -5 3 -10 15 -10 26 0 11 5
17 10 14 6 -3 10 -15 10 -26z m-40 1 c8 -5 11 -12 8 -16 -10 -9 -38 3 -38 16
0 12 10 13 30 0z m90 -99 c0 -13 -29 -35 -37 -28 -7 8 15 37 28 37 5 0 9 -4 9
-9z"/>
<path d="M33 732 c-36 -63 -38 -107 -9 -192 19 -58 25 -68 25 -44 1 48 27 124
52 150 13 14 17 24 10 24 -7 0 -22 23 -34 51 l-23 50 -21 -39z"/>
<path d="M901 724 c-7 -20 -21 -44 -32 -55 -10 -10 -14 -21 -9 -24 19 -12 10
-26 -9 -15 -34 17 -139 10 -127 -9 3 -4 -17 -40 -43 -81 l-48 -74 43 -28 c58
-37 98 -99 99 -153 l0 -42 25 19 c35 27 90 97 106 134 7 17 14 52 15 77 2 26
6 47 10 47 13 0 29 62 29 112 0 29 -8 65 -20 88 -11 22 -22 40 -23 40 -2 0 -9
-16 -16 -36z"/>
<path d="M144 698 l-19 -23 23 19 c12 11 22 21 22 23 0 8 -8 2 -26 -19z"/>
<path d="M480 665 c0 -9 9 -15 21 -15 18 0 19 2 9 15 -7 8 -16 15 -21 15 -5 0
-9 -7 -9 -15z"/>
<path d="M394 656 c-19 -15 -19 -15 0 -12 11 2 22 8 24 14 5 16 0 15 -24 -2z"/>
<path d="M373 590 c-6 -23 -23 -27 -23 -5 0 8 -4 15 -10 15 -5 0 -10 -9 -10
-20 0 -32 46 -27 52 5 6 30 -2 34 -9 5z"/>
<path d="M400 578 c0 -18 3 -50 7 -71 8 -54 23 -26 23 46 0 44 -3 57 -15 57
-10 0 -15 -10 -15 -32z"/>
<path d="M301 575 c-1 -16 -7 -37 -14 -46 -11 -15 -16 -15 -37 -3 -51 28 -114
13 -167 -39 -40 -37 -41 -64 -9 -132 41 -88 154 -169 279 -201 l69 -17 -7 -55
c-4 -30 -9 -61 -12 -69 -3 -8 3 -13 17 -13 17 0 20 4 15 20 -4 12 -1 28 5 36
11 12 15 9 30 -18 15 -29 54 -54 49 -31 -2 4 4 21 11 36 15 30 30 20 30 -20 0
-14 6 -23 15 -23 18 0 19 25 4 86 -10 37 -15 45 -32 42 -14 -2 -24 -14 -31
-35 -5 -18 -13 -33 -17 -33 -9 0 -44 69 -38 74 2 1 24 7 49 13 40 9 37 10 -30
5 -67 -4 -77 -2 -94 17 -15 16 -17 24 -8 33 18 18 14 38 -8 38 -26 0 -36 41
-22 89 19 62 31 71 97 75 91 6 164 32 175 62 13 32 13 44 0 44 -5 0 -10 -12
-10 -26 0 -14 -4 -23 -10 -19 -5 3 -10 1 -10 -5 0 -6 -4 -9 -8 -6 -5 3 -23 -4
-40 -15 -33 -20 -57 -25 -48 -11 9 15 -12 34 -35 30 l-24 -3 23 -22 22 -23
-30 0 c-20 0 -30 5 -30 15 0 8 -4 15 -10 15 -5 0 -10 -4 -10 -10 0 -18 -20
-11 -21 8 0 14 -2 14 -9 -3 -7 -18 -8 -19 -15 -3 -4 10 -11 16 -15 13 -5 -3
-11 4 -15 15 -3 11 -10 20 -15 20 -5 0 -4 13 1 29 7 19 7 40 0 62 l-9 34 -1
-30z"/>
<path d="M472 580 c0 -14 2 -19 5 -12 2 6 2 18 0 25 -3 6 -5 1 -5 -13z"/>
<path d="M490 559 c0 -76 36 -114 70 -74 7 8 16 12 21 9 5 -3 9 2 9 11 0 13
-8 16 -42 13 -42 -3 -43 -2 -46 30 -2 18 1 32 7 32 6 0 11 4 11 8 0 5 -7 9
-15 9 -11 0 -15 -11 -15 -38z"/>
<path d="M443 525 c0 -22 2 -30 4 -17 2 12 2 30 0 40 -3 9 -5 -1 -4 -23z"/>
<path d="M443 310 c-12 -5 -25 -21 -29 -35 -15 -60 86 -97 127 -46 25 30 24
37 -6 66 -25 26 -54 30 -92 15z m59 -34 c13 -31 4 -58 -17 -50 -17 7 -30 47
-20 63 10 18 25 12 37 -13z"/>
<path d="M647 303 c-20 -23 -7 -48 28 -57 14 -4 25 -11 25 -16 0 -16 -32 -12
-52 7 -17 15 -18 15 -18 -1 0 -9 10 -20 22 -25 26 -9 15 -18 -46 -37 -24 -7
-32 -13 -20 -13 12 -1 55 16 97 37 60 31 73 41 66 54 -5 9 -20 19 -34 22 -14
4 -25 11 -25 16 0 14 23 13 38 -2 15 -15 28 -2 14 15 -17 20 -76 20 -95 0z"/>
<path d="M574 229 c-9 -16 18 -30 33 -17 7 6 10 14 7 19 -7 13 -31 11 -40 -2z"/>
<path d="M321 131 c-8 -5 -11 -27 -9 -67 l3 -59 34 0 c19 0 36 6 39 13 2 7 -5
12 -17 12 -22 0 -24 4 -21 61 1 39 -8 53 -29 40z"/>
<path d="M612 73 l3 -68 44 0 c27 0 46 5 49 13 2 8 -7 12 -27 12 -24 0 -31 4
-31 20 0 13 7 20 20 20 11 0 20 5 20 10 0 6 -9 10 -20 10 -11 0 -20 7 -20 15
0 9 9 15 25 15 14 0 25 5 25 10 0 6 -20 10 -45 10 l-46 0 3 -67z"/>
<path d="M743 133 c-19 -7 -15 -38 7 -58 11 -10 20 -14 21 -9 0 5 5 -2 10 -15
12 -30 8 -34 -24 -22 -32 12 -46 -3 -18 -18 28 -15 56 -13 71 4 18 22 -2 63
-35 71 -14 3 -25 12 -25 19 0 16 38 26 43 11 2 -6 8 -8 12 -4 21 19 -27 36
-62 21z"/>
<path d="M140 65 c0 -58 2 -65 20 -65 16 0 20 7 20 30 0 23 4 30 20 30 11 0
20 5 20 11 0 6 -9 13 -20 16 -11 3 -20 9 -20 14 0 5 9 9 20 9 11 0 20 5 20 10
0 6 -18 10 -40 10 l-40 0 0 -65z"/>
<path d="M250 64 c0 -57 2 -65 18 -62 14 3 18 16 20 66 3 57 1 62 -18 62 -18
0 -20 -6 -20 -66z"/>
</g>
</svg>
